<?xml version="1.0" encoding="UTF-8" standalone="no"?>
<!-- Created with Inkscape (http://www.inkscape.org/) -->

<svg
   width="189.70985mm"
   height="234.96739mm"
   viewBox="0 0 189.70985 234.96739"
   version="1.1"
   id="svg841"
   sodipodi:docname="logo-grayscale.svg"
   inkscape:version="1.2.1 (9c6d41e, 2022-07-14)"
   xmlns:inkscape="http://www.inkscape.org/namespaces/inkscape"
   xmlns:sodipodi="http://sodipodi.sourceforge.net/DTD/sodipodi-0.dtd"
   xmlns="http://www.w3.org/2000/svg"
   xmlns:svg="http://www.w3.org/2000/svg">
  <sodipodi:namedview
     id="namedview843"
     pagecolor="#ffffff"
     bordercolor="#000000"
     borderopacity="0.25"
     inkscape:showpageshadow="2"
     inkscape:pageopacity="0.0"
     inkscape:pagecheckerboard="false"
     inkscape:deskcolor="#d1d1d1"
     inkscape:document-units="mm"
     showgrid="false"
     inkscape:zoom="0.64353346"
     inkscape:cx="275.82093"
     inkscape:cy="578.83548"
     inkscape:window-width="1549"
     inkscape:window-height="997"
     inkscape:window-x="0"
     inkscape:window-y="25"
     inkscape:window-maximized="0"
     inkscape:current-layer="layer1" />
  <defs
     id="defs838" />
  <g
     inkscape:groupmode="layer"
     id="layer2"
     inkscape:label="Taso 2"
     transform="translate(-24.870491,-40.776031)">
    <ellipse
       style="fill:#acacac;fill-opacity:1;stroke-width:0.474069"
       id="path2407"
       cx="119.72542"
       cy="130.2809"
       rx="94.854927"
       ry="89.504868"
       inkscape:label="bg" />
  </g>
  <g
     inkscape:label="Taso 1"
     inkscape:groupmode="layer"
     id="layer1"
     transform="translate(-6.073022,-44.246333)">
    <path
       style="fill:#7f7f7f;fill-rule:nonzero;stroke:none;stroke-width:0.100166;stroke-linecap:butt;stroke-linejoin:miter;stroke-miterlimit:10;stroke-dasharray:none;stroke-dashoffset:0"
       paint-order="stroke"
       d="m 120.86429,76.93922 c -4.5334,-0.996076 -4.58169,-1.057324 -11.62122,-1.00521 -2.96686,0.198918 -15.982277,-0.0158 -16.449527,0.432005 -9.396209,9.019884 -16.600285,18.196972 -20.084726,21.320332 -3.484441,3.123363 24.406886,-0.08699 26.585616,-0.08699 26.680347,0 48.308907,18.377693 48.308907,41.047883 0,22.67112 -21.62856,41.04881 -48.308907,41.04881 -7.38266,0 -14.374129,-1.41267 -20.632109,-3.92779 -1.06164,-0.42658 -2.10048,-0.88731 -3.11649,-1.37851 -3.04586,-1.47454 -11.76233,-5.01712 -11.79493,-4.98018 1.038544,5.29617 3.190037,18.17986 4.092081,29.18123 9.17453,3.32671 20.713229,5.18165 31.319958,5.18165 42.097647,0 76.224757,-28.99768 76.224757,-64.76789 0,-29.35961 -23.00532,-54.121117 -54.52341,-62.065338"
       stroke-linecap="round"
       id="path1164"
       inkscape:label="cloud"
       sodipodi:nodetypes="ccczsssccccssc" />
    <path
       style="fill:#7f7f7f;fill-opacity:1;stroke-width:0.264583"
       d="M 79.52775,75.768257 C 63.622199,96.300875 42.222006,108.73612 42.222006,108.73612 L 40.486855,72.876338 Z"
       id="path2029"
       inkscape:label="triangle" />
    <path
       style="display:inline;fill:#7f7f7f;fill-opacity:1;stroke-width:0.264583"
       d="M 54.946445,90.227835 C 104.27191,156.6387 145.83624,214.24184 165.7069,271.84029 c 3.57449,10.36126 30.61488,-11.15511 25.44889,-20.82181 C 157.40527,187.86383 85.261139,118.19129 63.043817,87.335929 40.826495,56.480566 53.708337,88.560875 54.946445,90.227835 Z"
       id="path2031"
       sodipodi:nodetypes="ssszs"
       inkscape:label="legRight" />
    <path
       style="fill:#7f7f7f;fill-opacity:1;stroke-width:0.227069"
       d="m 44.148246,117.77502 c -0.410793,60.91161 -1.742807,113.22718 -20.430659,156.33087 -3.361717,7.75383 31.195784,6.28194 32.86694,-1.72944 C 67.502603,220.0364 51.613189,147.47497 52.36412,119.47176 53.115052,91.468555 44.158554,116.2461 44.148246,117.77502 Z"
       id="path2033"
       sodipodi:nodetypes="ssszs"
       inkscape:label="legLeft" />
    <path
       style="fill:#0e0e0e;fill-opacity:1;stroke-width:1.55392"
       d="m 612.19083,868.79937 c -5.10935,-2.20407 -6.24462,-4.38751 -15.98728,-30.74812 C 570.95414,769.73423 532.5406,690.2801 485.90638,609.9139 c -8.9268,-15.38382 -16.40254,-28.17098 -16.61278,-28.41593 -0.21023,-0.24493 -5.67749,1.33221 -12.14944,3.50478 -33.10757,11.11384 -67.00373,16.47467 -104.40415,16.51197 -40.9081,0.0409 -75.67768,-4.99834 -108.80819,-15.76954 l -9.35726,-3.04217 -3.52105,-29.12738 c -1.93657,-16.02005 -5.29505,-39.85555 -7.46328,-52.96775 -2.16823,-13.11222 -3.62903,-24.15358 -3.24623,-24.53639 0.85095,-0.85094 18.21586,5.98163 39.40127,15.50323 48.59749,21.84174 93.83078,26.49951 143.87197,14.81479 7.47073,-1.74443 13.91934,-3.71569 14.33026,-4.38057 0.65778,-1.06429 -33.66634,-53.16396 -57.90275,-87.88906 C 317.92084,353.76624 210.30819,205.07514 202.7995,196.85021 c -0.64002,-0.70107 -7.23465,3.59627 -14.65473,9.54964 -7.42008,5.95338 -21.7649,16.47692 -31.87739,23.38565 l -18.38633,12.56132 -0.93424,-11.23352 c -1.48777,-17.88928 -6.08337,-120.86003 -5.42346,-121.51995 0.32887,-0.32887 32.05629,1.78496 70.50537,4.69741 38.44908,2.91244 70.82993,5.31015 71.95745,5.32824 2.71388,0.0435 -12.94011,18.83263 -33.15949,39.80048 l -16.27825,16.88084 3.50882,4.93152 c 10.46696,14.7109 53.74994,65.15699 132.48881,154.41504 23.74893,26.92168 59.88091,68.40448 80.2933,92.18402 l 37.11346,43.2355 12.53026,-12.15708 c 22.25143,-21.58876 36.72002,-47.60034 42.58944,-76.5671 3.48305,-17.18957 2.41488,-45.56697 -2.33576,-62.05253 -13.66071,-47.40514 -53.81178,-87.86239 -105.73943,-106.54579 -32.06138,-11.53559 -57.32274,-14.37856 -96.71954,-10.88505 -29.88797,2.65032 -73.17192,3.78154 -75.01493,1.9605 -1.23212,-1.21742 34.8887,-41.71422 59.67888,-66.90888 l 16.43646,-16.70465 h 45.37368 c 45.20744,0 45.43889,0.0168 63.18181,4.59164 29.04184,7.48812 57.76605,19.81421 83.79547,35.95815 59.51217,36.91063 101.88574,95.73094 113.59827,157.68997 11.29998,59.77662 -3.50455,119.13424 -42.64449,170.97985 -10.8969,14.43424 -38.05916,41.77807 -48.46112,48.78507 -3.17188,2.13665 -5.77182,4.46719 -5.77766,5.17899 -0.006,0.7118 5.81165,8.75334 12.92775,17.87009 47.5955,60.97666 88.49116,119.56932 119.61891,171.38234 21.12623,35.16519 30.61314,53.33233 30.56751,58.53579 -0.0508,5.79696 -6.03474,19.82587 -12.40729,29.08805 -19.48513,28.32065 -61.43533,54.23073 -76.96021,47.53361 z"
       id="path3501"
       transform="matrix(0.26458333,0,0,0.26458333,6.073022,44.246333)" />
    <path
       style="fill:#0e0e0e;fill-opacity:1;stroke-width:1.55392"
       d="m 93.235246,886.31265 c -11.401622,-1.77598 -20.929573,-5.46486 -23.913688,-9.25854 l -3.139661,-3.99144 3.227486,-8.03768 c 32.605237,-81.19962 50.470327,-156.56161 61.765167,-260.54981 7.28295,-67.05193 10.71641,-134.9175 12.49995,-247.0734 1.21719,-76.54138 1.49485,-82.13522 4.49488,-90.5552 4.01199,-11.26019 12.10738,-26.55971 15.8416,-29.93913 7.41005,-6.706 9.21973,2.95805 10.7787,57.56053 0.73204,25.6397 2.45092,57.45622 3.81974,70.7034 1.36881,13.24717 4.91396,46.81186 7.87812,74.5882 12.88976,120.78649 16.22119,166.06686 17.37776,236.19595 1.1978,72.63007 -2.79871,131.57476 -11.95807,176.37001 -2.47824,12.12019 -3.52256,14.5392 -7.83078,18.13878 -5.86706,4.90201 -18.23823,9.73093 -33.34614,13.01621 -10.82732,2.35446 -48.61255,4.2157 -57.495064,2.83212 z"
       id="path3503"
       transform="matrix(0.26458333,0,0,0.26458333,6.073022,44.246333)" />
  </g>
</svg>
